<svg width="24" height="24" viewBox="0 0 24 24" fill="none" xmlns="http://www.w3.org/2000/svg">
<path d="M13.3992 5.38859C15.3913 3.81962 18.4655 4.00465 20.1863 6.22258L20.4949 6.62199C22.298 8.9462 22.0382 12.2601 19.8943 14.2743L12.9412 20.8056C12.8287 20.9112 12.7184 21.0155 12.6169 21.0937C12.5088 21.177 12.3721 21.262 12.1951 21.2968C12.068 21.3217 11.9373 21.3217 11.8103 21.2968C11.6331 21.262 11.4956 21.177 11.3874 21.0937C11.2861 21.0155 11.1756 20.9111 11.0632 20.8056L4.11107 14.2743C1.96702 12.2602 1.70645 8.94627 3.50951 6.62199L3.81908 6.22258C5.58867 3.94204 8.78873 3.80972 10.7732 5.52629L11.1345 5.83879L10.8386 6.21477L9.80248 7.52727C9.46528 7.95467 9.24594 8.23487 9.114 8.46086C8.98944 8.67432 8.98958 8.76375 8.99975 8.81926C9.00994 8.8748 9.04179 8.95867 9.23412 9.11418C9.43762 9.27868 9.74202 9.46209 10.2087 9.74211L11.4607 10.4941C11.8704 10.7399 12.2225 10.9499 12.4783 11.1552C12.7453 11.3696 12.9706 11.6269 13.0525 11.9911C13.1342 12.355 13.0407 12.6833 12.8913 12.9911C12.7481 13.2861 12.5197 13.6267 12.2546 14.0243L11.4187 15.2792L10.5867 14.7245L11.4226 13.4696C11.7037 13.048 11.8856 12.7737 11.9919 12.5546C12.0919 12.3487 12.0889 12.2634 12.0769 12.2099C12.0648 12.1563 12.0308 12.0778 11.8523 11.9345C11.6624 11.7821 11.3812 11.612 10.947 11.3515L9.69408 10.5995C9.25304 10.3349 8.87606 10.1105 8.60522 9.89152C8.32326 9.66354 8.08765 9.38809 8.01635 8.99895C7.9452 8.60996 8.06796 8.26902 8.25072 7.95598C8.42632 7.65528 8.69889 7.31174 9.01732 6.90813L9.73705 5.99504C8.15754 4.94847 5.89949 5.17274 4.60912 6.83586L4.29955 7.2343C2.8124 9.15107 3.02744 11.8848 4.79565 13.5458L11.7478 20.0771C11.8747 20.1963 11.9442 20.2604 11.9978 20.3017C11.9991 20.3027 12.0005 20.3037 12.0017 20.3046C12.0031 20.3035 12.005 20.3029 12.0066 20.3017C12.0601 20.2604 12.1297 20.1963 12.2566 20.0771L19.2097 13.5458C20.9778 11.8848 21.1919 9.15102 19.7048 7.2343L19.3962 6.83586C18.0367 5.0836 15.6017 4.92684 14.0183 6.17375L13.3992 5.38859Z" fill="#DC3535"/>
</svg>
