<svg width="35" height="35" viewBox="0 0 35 35" fill="none" xmlns="http://www.w3.org/2000/svg">
<path d="M17.2031 0C26.7041 0 34.407 7.70218 34.4072 17.2031C34.4072 26.7043 26.7043 34.4072 17.2031 34.4072C14.207 34.4072 11.3908 33.6405 8.9375 32.2939L0 34.4072L2.29102 25.7871C0.833971 23.2611 0 20.3289 0 17.2031C0.00022489 7.70232 7.70232 0.000224876 17.2031 0ZM17.2031 3.08105C9.4039 3.08128 3.08105 9.40385 3.08105 17.2031C3.08107 20.2104 4.02172 22.9976 5.62402 25.2881L4.14258 30.335L9.42285 28.9902C11.6539 30.4663 14.3279 31.3251 17.2031 31.3252C25.0025 31.3252 31.3261 25.0025 31.3262 17.2031C31.3262 9.40371 25.0025 3.08105 17.2031 3.08105ZM12.4756 8.71387C12.6863 8.69673 12.8799 8.81867 12.9697 9.00977L14.9326 13.1719C15.0253 13.3688 14.984 13.603 14.8301 13.7568L13.3672 15.2197C13.0509 15.5361 12.9589 16.0291 13.1768 16.4199C13.7105 17.377 14.4283 18.2993 15.2598 19.1475C16.1079 19.9788 17.0293 20.6972 17.9863 21.2305C18.3772 21.4483 18.8697 21.3553 19.1865 21.0391L20.6494 19.5762C20.8033 19.4223 21.0375 19.3814 21.2344 19.4746L25.3965 21.4365C25.5876 21.5264 25.7105 21.7204 25.6934 21.9307C25.6484 22.4783 25.4281 23.5757 24.4443 24.5596C21.6677 27.3362 16.6822 24.1962 16.4766 24.0732C15.2499 23.4143 14.0838 22.5326 12.9785 21.4277C11.8739 20.323 10.9919 19.1572 10.333 17.9307C10.2111 17.728 7.06787 12.7398 9.8457 9.96191C10.8297 8.97797 11.9279 8.75879 12.4756 8.71387Z" fill="white"/>
</svg>
